<svg xmlns="http://www.w3.org/2000/svg"  viewBox="0 0 100 100" width="100px" height="100px" baseProfile="basic"><path fill="#74953c" d="M84.607,48.271c0.185-18.056-12.399-36.823-31.648-37.332c-6.292-1.002-12.895-0.154-19.074,2.641	c-10.86,4.912-20.159,15.623-21.457,27.549c-4.01,20.841,11.981,41.957,34.376,42.275c3.815,0.054,7.51-0.511,10.984-1.601	C73.147,79.479,84.453,63.403,84.607,48.271z"/><path fill="#f2f2f2" d="M38.285,64.249c6.382-3.192,13.462-2.242,19.138,1.92c3.637,2.666,7.133-3.405,3.533-6.044	c-7.727-5.665-17.723-6.161-26.205-1.92C30.722,60.219,34.263,66.26,38.285,64.249L38.285,64.249z"/><path fill="#f2f2f2" d="M31.593,52.923c10.432-4.774,22.843-4.98,31.983,2.665c3.433,2.872,8.411-2.055,4.95-4.95	c-11.768-9.843-26.922-9.958-40.466-3.759C23.969,48.751,27.522,54.786,31.593,52.923L31.593,52.923z"/><path fill="#f2f2f2" d="M26.825,40.407c13.423-4.136,29.453-6.971,41.327,2.628c3.473,2.807,8.455-2.116,4.95-4.95	c-14.035-11.345-31.921-9.425-48.138-4.428C20.672,34.979,22.503,41.739,26.825,40.407L26.825,40.407z"/><path d="M15.702,37.24c0,0-0.235,0.541-0.612,1.64c-0.368,1.099-0.878,2.765-1.201,5.038l0.003-0.018	c-0.705,3.483-1.311,8.554-0.068,14.644c0.104,0.77,0.334,1.528,0.566,2.304c0.229,0.779,0.463,1.574,0.702,2.385	c0.322,0.784,0.649,1.583,0.983,2.397c0.171,0.406,0.33,0.824,0.518,1.231c0.213,0.396,0.428,0.795,0.644,1.197	c1.627,3.285,4.025,6.471,6.99,9.4c5.824,5.973,14.966,10.158,24.99,10.307c2.431,0.044,4.988,0.032,7.607-0.42	c0.652-0.119,1.308-0.25,1.958-0.425l0.838-0.234l0.875-0.176c0.657-0.136,1.315-0.273,1.976-0.41	c0.64-0.208,1.283-0.417,1.927-0.627l0.967-0.319l0.929-0.417c0.62-0.281,1.241-0.562,1.864-0.844l1.775-1.027l0.889-0.521	l0.838-0.598l1.677-1.208l1.57-1.352l0.782-0.684l0.727-0.743l1.451-1.499c2.405-2.702,4.375-5.701,5.944-8.835	c1.552-3.14,2.751-6.418,3.378-9.774c0.673-3.344,0.773-6.75,0.538-9.984c-0.102-0.807-0.203-1.609-0.304-2.408l-0.157-1.192	l-0.252-1.169c-0.17-0.775-0.339-1.546-0.507-2.313c-0.229-0.75-0.457-1.495-0.684-2.236C82.061,26.524,73.384,17.82,64.5,14.862	c-0.556-0.174-1.106-0.345-1.649-0.515c-0.545-0.159-1.069-0.366-1.621-0.439c-1.09-0.191-2.143-0.423-3.177-0.557	c-1.04-0.063-2.051-0.124-3.033-0.184l-0.295-0.016l-0.358-0.041c-0.237-0.027-0.473-0.054-0.707-0.08	c-0.471-0.037-0.935-0.073-1.391-0.109c-3.657-0.192-6.797,0.225-9.279,0.808c-2.49,0.575-4.338,1.3-5.568,1.815	c-0.617,0.257-1.076,0.477-1.385,0.625c-0.308,0.147-0.467,0.222-0.467,0.222s0.164-0.063,0.482-0.187	c0.318-0.126,0.791-0.311,1.422-0.524c1.259-0.427,3.138-1.019,5.62-1.429c2.474-0.42,5.564-0.638,9.086-0.256	c0.439,0.059,0.885,0.118,1.338,0.179c0.227,0.038,0.456,0.077,0.687,0.116l0.347,0.058l0.42,0.047	c0.935,0.106,1.897,0.215,2.888,0.327c0.978,0.179,1.968,0.453,2.989,0.681c0.518,0.091,1.005,0.316,1.512,0.491	c0.504,0.184,1.014,0.37,1.53,0.558c8.211,3.175,15.956,11.609,19.181,22.744c0.194,0.696,0.389,1.396,0.585,2.1	c0.138,0.718,0.277,1.439,0.417,2.164l0.211,1.09l0.119,1.11c0.078,0.742,0.157,1.487,0.236,2.236	c0.15,3.022,0.007,6.052-0.647,9.097c-0.611,3.048-1.748,6.046-3.194,8.917c-1.462,2.866-3.281,5.612-5.473,8.076l-1.32,1.363	l-0.659,0.678L72.64,76.65l-1.414,1.23l-1.503,1.091l-0.748,0.544l-0.791,0.467l-1.576,0.932l-1.646,0.76l-0.819,0.381l-0.85,0.286	c-0.565,0.193-1.129,0.385-1.69,0.577c-0.578,0.126-1.154,0.252-1.729,0.378l-0.968,0.214c-0.083,0.019-0.131,0.025-0.242,0.06	l-0.104,0.031l-0.207,0.063l-0.415,0.121c-0.554,0.159-1.12,0.281-1.686,0.394c-2.272,0.433-4.633,0.501-7.006,0.507	c-9.272,0.043-17.745-3.489-23.455-8.89c-2.885-2.64-5.291-5.553-6.977-8.607c-0.225-0.374-0.448-0.745-0.669-1.112	c-0.197-0.38-0.365-0.77-0.547-1.15c-0.358-0.763-0.709-1.511-1.053-2.246c-0.267-0.765-0.529-1.515-0.785-2.25	c-0.262-0.734-0.523-1.453-0.66-2.186c-1.507-5.796-1.231-10.777-0.76-14.26l0.003-0.019c0.18-2.25,0.576-3.935,0.867-5.052	C15.508,37.798,15.702,37.24,15.702,37.24z"/></svg>